<svg height="20px" fill = "#FFF" viewBox="0 0 512.00046 512" width="20px" xmlns="http://www.w3.org/2000/svg"><path d="m256.027344 512c-.765625 0-1.53125-.003906-2.296875-.011719-69.007813-.597656-133.390625-28.019531-181.285157-77.214843-47.9375-49.238282-73.652343-114.402344-72.4023432-183.488282 1.2187502-67.390625 28.3867192-130.550781 76.4960932-177.847656 48.171876-47.355469 111.90625-73.4375 179.460938-73.4375 68.382812 0 132.671875 26.628906 181.023438 74.980469 48.351562 48.351562 74.976562 112.640625 74.976562 181.019531v.605469c-.03125 14.199219-5.777344 27.425781-16.175781 37.203125-10.425781 9.800781-24.632813 14.929687-38.976563 14.074218-1.570312-.09375-3.167968-.144531-4.746094-.144531-43.175781 0-78.300781 35.121094-78.300781 78.292969 0 1.113281.023438 2.265625.074219 3.414062 1.375 32.195313-10.125 62.816407-32.382812 86.210938-22.078126 23.207031-51.785157 36.113281-83.648438 36.339844-.605469.003906-1.210938.003906-1.816406.003906zm-.027344-492c-62.277344 0-121.03125 24.042969-165.441406 67.699219-44.351563 43.605469-69.394532 101.828125-70.519532 163.945312-1.152343 63.710938 22.550782 123.792969 66.734376 169.175781 44.144531 45.34375 103.5 70.617188 167.132812 71.167969 1.269531.015625 2.535156.015625 3.800781.007813 26.378907-.1875 50.992188-10.886719 69.296875-30.125 18.480469-19.425782 28.03125-44.847656 26.886719-71.578125-.058594-1.433594-.089844-2.867188-.089844-4.261719 0-54.199219 44.097657-98.292969 98.300781-98.292969 1.972657 0 3.972657.0625 5.9375.179688 9.007813.542969 17.558594-2.546875 24.082032-8.683594 6.351562-5.96875 9.859375-14.03125 9.878906-22.707031v-.527344c0-63.039062-24.546875-122.304688-69.121094-166.875-44.570312-44.574219-103.835937-69.125-166.878906-69.125zm0 0"/><path d="m175.925781 439.992188c-33.082031 0-60-26.914063-60-60 0-33.082032 26.917969-60 60-60 33.085938 0 60 26.917968 60 60 0 33.085937-26.914062 60-60 60zm0-100c-22.054687 0-40 17.945312-40 40 0 22.058593 17.945313 40 40 40 22.058594 0 40-17.941407 40-40 0-22.054688-17.941406-40-40-40zm0 0"/><path d="m105.425781 316.238281c-33.085937 0-60-26.914062-60-60 0-33.082031 26.914063-60 60-60 33.082031 0 60 26.917969 60 60 0 33.085938-26.917969 60-60 60zm0-100c-22.054687 0-40 17.945313-40 40 0 22.058594 17.945313 40 40 40 22.054688 0 40-17.941406 40-40 0-22.054687-17.945312-40-40-40zm0 0"/><path d="m173.675781 191.738281c-33.082031 0-60-26.914062-60-60 0-33.082031 26.917969-60 60-60 33.085938 0 60 26.917969 60 60 0 33.085938-26.914062 60-60 60zm0-100c-22.054687 0-40 17.945313-40 40 0 22.058594 17.945313 40 40 40 22.058594 0 40-17.941406 40-40 0-22.054687-17.941406-40-40-40zm0 0"/><path d="m326.679688 191.238281c-33.085938 0-60-26.914062-60-60 0-33.082031 26.914062-60 60-60 33.082031 0 60 26.917969 60 60 0 33.085938-26.917969 60-60 60zm0-100c-22.054688 0-40 17.945313-40 40 0 22.058594 17.945312 40 40 40 22.054687 0 40-17.941406 40-40 0-22.054687-17.945313-40-40-40zm0 0"/><path d="m340.59375 299.273438c-2.371094 0-4.75-.835938-6.652344-2.535157-4.117187-3.675781-4.484375-9.980469-.816406-14.105469.523438-.585937 13.054688-14.550781 32.804688-26.550781 26.894531-16.339843 54.429687-21.226562 79.625-14.132812 5.316406 1.5 8.410156 7.023437 6.914062 12.339843-1.496094 5.3125-7.023438 8.410157-12.335938 6.914063-48.125-13.550781-91.644531 34.253906-92.078124 34.738281-1.976563 2.207032-4.714844 3.332032-7.460938 3.332032zm0 0"/><path d="m327.375 335.539062c-5.523438 0-10.003906-4.480468-10.003906-10 0-5.523437 4.472656-10 9.996094-10h.007812c5.523438 0 10 4.476563 10 10 0 5.519532-4.476562 10-10 10zm0 0"/></svg>